<?xml version="1.0" encoding="UTF-8"?>
<svg data-bbox="629.23 748.42 741.51 503.17" viewBox="0 0 2000 2000" xmlns="http://www.w3.org/2000/svg" data-type="color">
    <g>
        <path d="M1081.59 767.58c-33.4-16.61-71.95-23.03-110.46-16.85l9.31 31.58c30.27-4 60.3 1.4 86.64 14.47 34.58 17.2 62.5 47.46 75.78 86.95 7.66 22.82 9.54 46.13 6.47 68.42l31.03 12.46c5.41-29.54 3.66-60.84-6.58-91.27-16.1-47.93-50.22-84.93-92.19-105.76z" fill="#1d252d" data-color="1"></path>
        <path d="M1058.4 1105.51c40.3-13.54 72.83-39.83 94.56-72.8l-31.02-12.46c-17.77 24.53-42.99 43.94-73.93 54.34-39.5 13.26-80.48 9.28-115.07-7.9-1.74-.87-3.46-1.79-5.17-2.73l-25.29 22.99c5.17 3.24 10.49 6.24 15.94 8.95 41.96 20.87 92.05 25.72 139.98 9.61z" fill="#1d252d" data-color="1"></path>
        <path d="M826.24 990.13c5.62 16.75 13.49 32.12 23.08 45.98l24.35-22.14a151.104 151.104 0 0 1-16.51-34.23c-13.26-39.5-9.28-80.48 7.9-115.07 10.8-21.7 26.74-40.77 46.87-55.26l-9.65-32.75a183.026 183.026 0 0 0-66.42 73.49c-20.89 41.96-25.74 92.05-9.62 139.98z" fill="#1d252d" data-color="1"></path>
        <path fill="#e4701f" d="m919.58 949.87 79.23-62.86 79.23 62.86h62.85L998.81 837.14 856.73 949.87h62.85z" data-color="2"></path>
        <path fill="#231f20" d="M993.92 929.18v21.55h-21.55v-21.55h21.55z" data-color="3"></path>
        <path fill="#231f20" d="M1025.24 929.18v21.55h-21.55v-21.55h21.55z" data-color="3"></path>
        <path fill="#231f20" d="M993.92 959.99v21.55h-21.55v-21.55h21.55z" data-color="3"></path>
        <path fill="#231f20" d="M1025.24 959.99v21.55h-21.55v-21.55h21.55z" data-color="3"></path>
        <path d="M670.84 1201.84c.62.47.93.99.93 1.55 0 .52-.18 1.04-.54 1.55l-4.2 6.68c-.47.73-.96 1.09-1.48 1.09-.42 0-.91-.21-1.48-.62-2.02-1.5-4.04-2.65-6.06-3.46-2.02-.8-4.12-1.2-6.3-1.2-2.07 0-3.71.4-4.9 1.2-1.19.8-1.79 1.85-1.79 3.15 0 .99.31 1.78.93 2.37.62.6 1.55 1.13 2.8 1.59 1.24.47 3.06.99 5.44 1.55 4.04.98 7.36 2.19 9.95 3.61 2.59 1.43 4.53 3.2 5.83 5.32 1.29 2.12 1.94 4.72 1.94 7.77 0 3.63-.89 6.76-2.68 9.4-1.79 2.64-4.33 4.66-7.62 6.06-3.29 1.4-7.09 2.1-11.39 2.1-3.94 0-7.57-.58-10.88-1.75-3.32-1.17-6.3-2.79-8.94-4.86-.78-.62-1.17-1.22-1.17-1.79 0-.52.21-1.09.62-1.71l4.04-6.45c.47-.78.98-1.17 1.55-1.17.36 0 .85.23 1.48.7 1.87 1.45 3.96 2.6 6.3 3.46 2.33.86 4.66 1.28 7 1.28 2.49 0 4.39-.4 5.71-1.2 1.32-.8 1.98-1.88 1.98-3.22 0-.93-.31-1.71-.93-2.33-.62-.62-1.61-1.18-2.95-1.67-1.35-.49-3.32-1.05-5.91-1.67-3.84-.93-7-2.07-9.48-3.42-2.49-1.35-4.38-3.1-5.67-5.25-1.3-2.15-1.94-4.81-1.94-7.97 0-3.63.88-6.75 2.64-9.37 1.76-2.62 4.21-4.61 7.35-5.98 3.13-1.37 6.72-2.06 10.76-2.06 7.17.04 13.52 2.27 19.06 6.72z" fill="#e4701f" data-color="2"></path>
        <path d="M740.13 1238.6c.34.31.51.83.51 1.55v8.39c0 1.35-.7 2.02-2.1 2.02h-32.72c-.67 0-1.18-.17-1.52-.51-.34-.34-.51-.84-.51-1.52v-50.36c0-.72.17-1.24.51-1.55.34-.31.84-.47 1.52-.47h32.64c1.4 0 2.1.67 2.1 2.02v8.39c0 .73-.17 1.24-.51 1.55-.34.31-.87.47-1.59.47h-19.97c-.47 0-.78.09-.93.27-.16.18-.23.48-.23.89v6.06c0 .47.08.78.23.93.15.16.47.23.93.23h17.41c.72 0 1.24.17 1.55.51.31.34.47.87.47 1.59v8.32c0 .67-.16 1.18-.47 1.52-.31.34-.83.51-1.55.51h-17.41c-.47 0-.78.09-.93.27-.16.18-.23.48-.23.89v6.37c0 .42.08.71.23.89.15.18.47.27.93.27h20.05c.73.04 1.26.19 1.59.5z" fill="#e4701f" data-color="2"></path>
        <path d="M812.92 1234.56c.62-.47 1.14-.7 1.55-.7.26 0 .49.08.7.23.21.16.44.39.7.7l4.43 6.37c.31.47.47.91.47 1.32 0 .47-.39 1.06-1.17 1.79-2.8 2.33-5.93 4.13-9.4 5.4-3.47 1.27-7.12 1.9-10.96 1.9-5.44 0-10.36-1.2-14.77-3.61-4.4-2.41-7.86-5.74-10.38-9.99-2.51-4.25-3.77-9.02-3.77-14.3 0-5.44 1.27-10.32 3.81-14.65s6.05-7.72 10.53-10.18c4.48-2.46 9.55-3.69 15.19-3.69 3.83 0 7.45.65 10.84 1.94 3.39 1.3 6.46 3.08 9.21 5.36.62.52.93 1.01.93 1.48 0 .42-.18.88-.54 1.4l-4.51 6.37c-.47.67-.96 1.01-1.48 1.01-.47 0-.99-.21-1.55-.62-4.2-3-8.52-4.51-12.98-4.51-2.95 0-5.61.66-7.97 1.98-2.36 1.32-4.2 3.19-5.52 5.6-1.32 2.41-1.98 5.17-1.98 8.28 0 3.01.66 5.7 1.98 8.08 1.32 2.38 3.16 4.25 5.52 5.6 2.36 1.35 5.01 2.02 7.97 2.02 4.78.01 9.16-1.52 13.15-4.58z" fill="#e4701f" data-color="2"></path>
        <path d="M897.52 1240.59c-2.1 3.65-5.04 6.4-8.82 8.24-3.78 1.84-8.16 2.76-13.14 2.76-4.82 0-9.03-.88-12.63-2.64-3.6-1.76-6.41-4.46-8.43-8.08-2.02-3.63-3.03-8.16-3.03-13.6v-29.07c0-.72.17-1.24.51-1.55.34-.31.84-.47 1.52-.47h9.4c.72 0 1.26.16 1.59.47.34.31.5.83.5 1.55v27.98c0 4.2.93 7.41 2.8 9.64 1.87 2.23 4.61 3.34 8.24 3.34 3.58 0 6.32-1.11 8.24-3.34 1.92-2.23 2.88-5.44 2.88-9.64v-27.98c0-.72.17-1.24.51-1.55.34-.31.84-.47 1.52-.47h9.4c.72 0 1.26.16 1.59.47.34.31.51.83.51 1.55v28.91c-.01 5.33-1.06 9.82-3.16 13.48z" fill="#e4701f" data-color="2"></path>
        <path d="M948.28 1250.11c-.34.31-.87.47-1.59.47h-9.4c-.67 0-1.18-.17-1.52-.51-.34-.34-.51-.84-.51-1.52v-50.36c0-.72.17-1.24.51-1.55.34-.31.84-.47 1.52-.47h17.8c8.13 0 14.2 1.49 18.19 4.47 3.99 2.98 5.98 7.58 5.98 13.8 0 6.53-3.06 11.27-9.17 14.22l11.89 19.43c.36.52.54.98.54 1.4 0 .73-.65 1.09-1.94 1.09h-10.1c-1.09 0-1.89-.14-2.41-.43-.52-.28-1.06-.92-1.63-1.9L954 1226.64c-.05-.05-.14-.22-.27-.51-.13-.28-.19-.53-.19-.74 0-.52.52-.86 1.55-1.01 3-.36 5.45-1.26 7.35-2.68 1.89-1.42 2.84-3.41 2.84-5.95 0-2.64-.88-4.6-2.64-5.87-1.76-1.27-4.38-1.9-7.85-1.9h-4.82c-.47 0-.78.08-.93.23-.16.15-.23.47-.23.93v39.41c-.03.73-.2 1.25-.53 1.56z" fill="#e4701f" data-color="2"></path>
        <path d="M1020.83 1248.09c-.47.98-.96 1.65-1.48 1.98-.52.34-1.27.51-2.25.51h-9.48c-1.14 0-1.71-.36-1.71-1.09 0-.47.13-.93.39-1.4l24.79-49.35c.72-1.5 1.35-2.54 1.87-3.11.52-.57 1.09-.86 1.71-.86s1.18.29 1.67.86c.49.57 1.13 1.61 1.9 3.11l24.95 49.35c.26.47.39.91.39 1.32 0 .78-.6 1.17-1.79 1.17h-9.95c-.98 0-1.72-.17-2.21-.51-.49-.34-.97-1-1.44-1.98l-13.76-28.29-13.6 28.29z" fill="#e4701f" data-color="2"></path>
        <path d="M1132.05 1234.56c.62-.47 1.14-.7 1.55-.7.26 0 .49.08.7.23.21.16.44.39.7.7l4.43 6.37c.31.47.47.91.47 1.32 0 .47-.39 1.06-1.17 1.79-2.8 2.33-5.93 4.13-9.4 5.4-3.47 1.27-7.13 1.9-10.96 1.9-5.44 0-10.36-1.2-14.77-3.61-4.4-2.41-7.86-5.74-10.38-9.99-2.51-4.25-3.77-9.02-3.77-14.3 0-5.44 1.27-10.32 3.81-14.65s6.05-7.72 10.53-10.18c4.48-2.46 9.55-3.69 15.19-3.69 3.83 0 7.45.65 10.84 1.94 3.39 1.3 6.46 3.08 9.21 5.36.62.52.93 1.01.93 1.48 0 .42-.18.88-.54 1.4l-4.51 6.37c-.47.67-.96 1.01-1.48 1.01-.47 0-.99-.21-1.55-.62-4.2-3-8.52-4.51-12.98-4.51-2.95 0-5.61.66-7.97 1.98-2.36 1.32-4.2 3.19-5.52 5.6-1.32 2.41-1.98 5.17-1.98 8.28 0 3.01.66 5.7 1.98 8.08 1.32 2.38 3.16 4.25 5.52 5.6 2.36 1.35 5.01 2.02 7.97 2.02 4.78.01 9.16-1.52 13.15-4.58z" fill="#1d252d" data-color="1"></path>
        <path d="M1170.64 1208.91c2.51-4.3 5.97-7.67 10.38-10.1 4.4-2.44 9.38-3.65 14.92-3.65 5.6 0 10.61 1.2 15.04 3.61s7.89 5.75 10.38 10.03c2.49 4.28 3.73 9.13 3.73 14.57s-1.26 10.3-3.77 14.57c-2.51 4.28-6 7.62-10.45 10.03-4.46 2.41-9.48 3.61-15.08 3.61-5.49 0-10.44-1.19-14.84-3.57-4.41-2.38-7.85-5.71-10.34-9.99-2.49-4.27-3.73-9.11-3.73-14.49-.01-5.44 1.25-10.31 3.76-14.62zm12.16 22.78c1.29 2.38 3.08 4.22 5.36 5.52 2.28 1.3 4.84 1.94 7.69 1.94 2.85 0 5.43-.66 7.73-1.98 2.31-1.32 4.13-3.17 5.48-5.56 1.35-2.38 2.02-5.1 2.02-8.16 0-3.16-.66-5.93-1.98-8.32-1.32-2.38-3.14-4.24-5.44-5.56-2.31-1.32-4.88-1.98-7.73-1.98-2.85 0-5.43.66-7.73 1.98-2.31 1.32-4.11 3.19-5.4 5.6-1.3 2.41-1.94 5.17-1.94 8.28 0 3.11.65 5.85 1.94 8.24z" fill="#1d252d" data-color="1"></path>
        <path d="M1270.13 1250.11c-.34.31-.87.47-1.59.47h-9.4c-.67 0-1.18-.17-1.52-.51-.34-.34-.51-.84-.51-1.52v-50.36c0-.72.17-1.24.51-1.55.34-.31.84-.47 1.52-.47h17.8c8.13 0 14.2 1.49 18.19 4.47 3.99 2.98 5.98 7.58 5.98 13.8 0 6.53-3.06 11.27-9.17 14.22l11.89 19.43c.36.52.54.98.54 1.4 0 .73-.65 1.09-1.94 1.09h-10.1c-1.09 0-1.89-.14-2.41-.43-.52-.28-1.06-.92-1.63-1.9l-12.44-21.61c-.05-.05-.14-.22-.27-.51-.13-.28-.19-.53-.19-.74 0-.52.52-.86 1.55-1.01 3-.36 5.45-1.26 7.35-2.68 1.89-1.42 2.84-3.41 2.84-5.95 0-2.64-.88-4.6-2.64-5.87-1.76-1.27-4.38-1.9-7.85-1.9h-4.82c-.47 0-.78.08-.93.23-.16.15-.23.47-.23.93v39.41c-.03.73-.2 1.25-.53 1.56z" fill="#1d252d" data-color="1"></path>
        <path d="M1370.23 1238.6c.34.31.51.83.51 1.55v8.39c0 1.35-.7 2.02-2.1 2.02h-32.72c-.67 0-1.18-.17-1.52-.51-.34-.34-.51-.84-.51-1.52v-50.36c0-.72.17-1.24.51-1.55.34-.31.84-.47 1.52-.47h32.64c1.4 0 2.1.67 2.1 2.02v8.39c0 .73-.17 1.24-.51 1.55-.34.31-.87.47-1.59.47h-19.97c-.47 0-.78.09-.93.27-.16.18-.23.48-.23.89v6.06c0 .47.08.78.23.93.15.16.47.23.93.23H1366c.72 0 1.24.17 1.55.51.31.34.47.87.47 1.59v8.32c0 .67-.16 1.18-.47 1.52-.31.34-.83.51-1.55.51h-17.41c-.47 0-.78.09-.93.27-.16.18-.23.48-.23.89v6.37c0 .42.08.71.23.89.15.18.47.27.93.27h20.05c.72.04 1.25.19 1.59.5z" fill="#1d252d" data-color="1"></path>
    </g>
</svg>